<?xml version="1.0" encoding="UTF-8"?>
<svg width="72px" height="47px" viewBox="0 0 72 47" version="1.1" xmlns="http://www.w3.org/2000/svg" xmlns:xlink="http://www.w3.org/1999/xlink">
    <!-- Generator: Sketch 42 (36781) - http://www.bohemiancoding.com/sketch -->
    <title>GHG-icon</title>
    <desc>Created with Sketch.</desc>
    <defs></defs>
    <g id="Page-1" stroke="none" stroke-width="1" fill="none" fill-rule="evenodd">
        <g id="GHG" transform="translate(-474.000000, -135.000000)">
            <g id="Group-4" transform="translate(434.000000, 135.000000)">
                <g id="Group-3" transform="translate(40.000000, 0.000000)">
                    <g id="GHG-icon">
                        <path d="M45.8478261,0.526748914 C53.8182668,2.40448346 59.92852,9.10230705 60.9333959,17.3778329 C67.1054168,19.2952094 71.5869565,25.0476674 71.5869565,31.8486842 C71.5869565,40.2165249 64.8038491,47 56.4270883,47 L15.1598682,47 C6.78730417,47 0,40.2183647 0,31.8486842 C0,23.4808436 6.78310738,16.6973684 15.1598682,16.6973684 L19.2862879,16.6973684 C20.5519699,8.63294928 26.6888932,2.1845244 34.5869565,0.456773017 L34.5869565,9.55932203 L45.8478261,9.55932203 L45.8478261,0.526748914 Z M39.6425095,18.5492925 C39.960008,18.8637367 40.4755636,18.8629553 40.7922731,18.5492925 L49.2946835,10.1286736 C49.6121819,9.81422939 49.5180231,9.55932203 49.0646587,9.55932203 L31.3701239,9.55932203 C30.9255863,9.55932203 30.8233897,9.81501081 31.1400992,10.1286736 L39.6425095,18.5492925 Z" id="Combined-Shape" fill="#EEEEEE"></path>
                        <text id="CO" font-family="MyriadPro-Semibold, Myriad Pro" font-size="20.8" font-weight="500" letter-spacing="0.871619034" fill="#FBFCFA">
                            <tspan x="21.3524834" y="37.5084746">CO</tspan>
                        </text>
                    </g>
                </g>
            </g>
        </g>
    </g>
</svg>