<?xml version="1.0" encoding="UTF-8"?>
<svg width="30px" height="37px" viewBox="0 0 30 37" version="1.1" xmlns="http://www.w3.org/2000/svg" xmlns:xlink="http://www.w3.org/1999/xlink">
    <!-- Generator: Sketch 42 (36781) - http://www.bohemiancoding.com/sketch -->
    <title>office-icon</title>
    <desc>Created with Sketch.</desc>
    <defs></defs>
    <g id="Symbols" stroke="none" stroke-width="1" fill="none" fill-rule="evenodd">
        <g id="retail-icon-copy" transform="translate(-4.000000, -1.000000)">
            <g id="office-icon" transform="translate(4.000000, 1.000000)">
                <g id="hotel-icon" transform="translate(8.000000, 0.000000)">
                    <path d="M3,1.9998849 C3,0.895378969 3.89092539,0 4.99742191,0 L20.0025781,0 C21.1057238,0 22,0.895804298 22,1.99999401 L22,36.2391546 L16.5789131,36.2391546 L16.5789131,20.9843293 L16.5789131,9.53994411 L3,9.53994411 L3,1.9998849 Z M7,3.68965517 L7,7.98922414 L10.5,7.98922414 L10.5,3.68965517 L7,3.68965517 Z M14,3.68965517 L14,7.98922414 L17.5,7.98922414 L17.5,3.68965517 L14,3.68965517 Z" id="Combined-Shape" fill="#DCDCDC"></path>
                    <rect id="Rectangle-4" fill="#FBFCFA" x="14" y="19.6896552" width="3.5" height="4.29956897"></rect>
                    <g id="Group-2" transform="translate(0.615385, 16.646274)" fill="#FBFCFA">
                        <rect id="Rectangle-4" x="0" y="0.251390434" width="4.03846154" height="4.99304783"></rect>
                        <rect id="Rectangle-4" x="0" y="9.54171301" width="4.03846154" height="4.99304783"></rect>
                    </g>
                </g>
                <g id="hotel-icon" transform="translate(0.000000, 7.000000)">
                    <path d="M14.6774194,29.3448276 L14.6774194,21.7571748 L10.9032258,21.7571748 L10.9032258,29.3448276 L0,29.3448276 L0,1.99391864 C0,0.892707784 0.894978851,0 1.99700466,0 L24.0029953,0 C25.1059106,0 26,0.894255196 26,1.99391864 L26,29.3448276 L14.6774194,29.3448276 Z M4,12.6896552 L4,16.9892241 L7.5,16.9892241 L7.5,12.6896552 L4,12.6896552 Z M4,20.6896552 L4,24.9892241 L7.5,24.9892241 L7.5,20.6896552 L4,20.6896552 Z M11,12.6896552 L11,16.9892241 L14.5,16.9892241 L14.5,12.6896552 L11,12.6896552 Z M18,12.6896552 L18,16.9892241 L21.5,16.9892241 L21.5,12.6896552 L18,12.6896552 Z M4,4.68965517 L4,8.98922414 L7.5,8.98922414 L7.5,4.68965517 L4,4.68965517 Z M11,4.68965517 L11,8.98922414 L14.5,8.98922414 L14.5,4.68965517 L11,4.68965517 Z M18,4.68965517 L18,8.98922414 L21.5,8.98922414 L21.5,4.68965517 L18,4.68965517 Z M18,20.6896552 L18,24.9892241 L21.5,24.9892241 L21.5,20.6896552 L18,20.6896552 Z" id="Combined-Shape" fill="#EBEBEB"></path>
                    <g id="Group-2" transform="translate(4.000000, 3.862069)"></g>
                </g>
            </g>
        </g>
    </g>
</svg>